# xmcd CD database file
#
# Track frame offsets:
#	150
#	20835
#	41965
#	58715
#	75005
#	90335
#	108597
#	131580
#	144640
#	163510
#	181870
#
# Disc length: 2720 seconds
#
# Revision: 2
# Processed by: cddbd v1.5.2PL0 Copyright (c) Steve Scherf et al.
# Submitted via: CDex 1.70beta2
#
DISCID=8a0a9e0b
DTITLE=Willie Nelson and Bobbie Nelson - Gospel
DYEAR=1986
DGENRE=Gospel
TTITLE0=Just a Little Walk With Jesus
TTITLE1=I'd Rather Have Jesus
TTITLE2=Where the Soul Never Dies
TTITLE3=The Lily of the Valley
TTITLE4=I'll Fly Away
TTITLE5=Are You Washed in the Blood
TTITLE6=Where He Leads Me
TTITLE7=Old Time Religion
TTITLE8=Revive Us Again
TTITLE9=Sweet Bye and Bye
TTITLE10=When We All Get to Heaven
EXTD=YEAR: 1986
EXTT0=
EXTT1=
EXTT2=
EXTT3=
EXTT4=
EXTT5=
EXTT6=
EXTT7=
EXTT8=
EXTT9=
EXTT10=
PLAYORDER=
